<svg width="100" height="100" viewBox="0 0 100 100" fill="none" xmlns="http://www.w3.org/2000/svg">
<g clip-path="url(#clip0_771_1249)">
<path d="M50.0011 0L91.3136 18.75H96.8761C97.7049 18.75 98.4998 19.0792 99.0858 19.6653C99.6719 20.2513 100.001 21.0462 100.001 21.875V34.375C100.001 35.2038 99.6719 35.9987 99.0858 36.5847C98.4998 37.1708 97.7049 37.5 96.8761 37.5H93.7511V81.25C94.449 81.2505 95.1267 81.4847 95.676 81.9151C96.2254 82.3455 96.6149 82.9475 96.7824 83.625L99.9074 96.125C100.024 96.5853 100.033 97.0662 99.935 97.5308C99.8369 97.9953 99.6338 98.4313 99.3412 98.8053C99.0487 99.1792 98.6745 99.4813 98.2472 99.6884C97.8199 99.8955 97.3509 100.002 96.8761 100H3.1261C2.65129 100.002 2.18231 99.8955 1.75503 99.6884C1.32776 99.4813 0.953523 99.1792 0.660974 98.8053C0.368424 98.4313 0.165315 97.9953 0.0671901 97.5308C-0.0309345 97.0662 -0.0214728 96.5853 0.0948512 96.125L3.21985 83.625C3.38735 82.9475 3.77682 82.3455 4.32619 81.9151C4.87555 81.4847 5.55319 81.2505 6.2511 81.25V37.5H3.1261C2.2973 37.5 1.50244 37.1708 0.916393 36.5847C0.330341 35.9987 0.00110116 35.2038 0.00110116 34.375V21.875C0.00110116 21.0462 0.330341 20.2513 0.916393 19.6653C1.50244 19.0792 2.2973 18.75 3.1261 18.75H8.6886L50.0011 0ZM23.6074 18.75H76.4011L50.0011 6.25L23.6074 18.75ZM12.5011 37.5V81.25H18.7511V37.5H12.5011ZM25.0011 37.5V81.25H40.6261V37.5H25.0011ZM46.8761 37.5V81.25H53.1261V37.5H46.8761ZM59.3761 37.5V81.25H75.0011V37.5H59.3761ZM81.2511 37.5V81.25H87.5011V37.5H81.2511ZM93.7511 31.25V25H6.2511V31.25H93.7511ZM91.3136 87.5H8.6886L7.1261 93.75H92.8761L91.3136 87.5Z" fill="#FDFDFD"/>
</g>
<defs>
<clipPath id="clip0_771_1249">
<rect width="100" height="100" fill="white"/>
</clipPath>
</defs>
</svg>
