<svg width="100" height="100" viewBox="0 0 100 100" fill="none" xmlns="http://www.w3.org/2000/svg">
<path d="M18.0335 36.9501L47.271 63.0042C48.034 63.6837 49.0201 64.059 50.0418 64.059C51.0635 64.059 52.0496 63.6837 52.8127 63.0042L82.0168 36.9792L52.2793 17.5417C51.6017 17.0989 50.8097 16.8631 50.0002 16.8631C49.1906 16.8631 48.3987 17.0989 47.721 17.5417L18.0335 36.9501ZM83.3335 37.8417V46.9667L58.3585 69.2251C56.0688 71.2656 53.1088 72.3932 50.0418 72.3932C46.9748 72.3932 44.0148 71.2656 41.7252 69.2251L16.6668 46.8917V37.8459V83.3334H83.3335V37.8417ZM12.1085 30.8667L43.1627 10.5667C45.1957 9.23831 47.5716 8.53088 50.0002 8.53088C52.4287 8.53088 54.8047 9.23831 56.8377 10.5667L87.8918 30.8667C89.051 31.6242 90.0032 32.6585 90.6623 33.8763C91.3214 35.0941 91.6666 36.457 91.6668 37.8417V83.3334C91.6668 85.5435 90.7889 87.6631 89.226 89.2259C87.6632 90.7887 85.5436 91.6667 83.3335 91.6667H16.6668C14.4567 91.6667 12.3371 90.7887 10.7743 89.2259C9.21147 87.6631 8.3335 85.5435 8.3335 83.3334V37.8417C8.33368 36.457 8.67892 35.0941 9.33802 33.8763C9.99712 32.6585 10.9493 31.6242 12.1085 30.8667V30.8667Z" fill="#FDFDFD"/>
</svg>
