<svg width="100" height="100" viewBox="0 0 100 100" fill="none" xmlns="http://www.w3.org/2000/svg">
<g clip-path="url(#clip0_186_1273)">
<path d="M37.5117 34.375C37.5117 36.8614 36.524 39.246 34.7658 41.0041C33.0077 42.7623 30.6231 43.75 28.1367 43.75C25.6503 43.75 23.2657 42.7623 21.5076 41.0041C19.7494 39.246 18.7617 36.8614 18.7617 34.375C18.7617 31.8886 19.7494 29.504 21.5076 27.7459C23.2657 25.9877 25.6503 25 28.1367 25C30.6231 25 33.0077 25.9877 34.7658 27.7459C36.524 29.504 37.5117 31.8886 37.5117 34.375Z" fill="#37833A"/>
<path d="M12.5117 6.25C9.19651 6.25 6.01709 7.56696 3.67288 9.91117C1.32868 12.2554 0.0117188 15.4348 0.0117188 18.75V81.25C0.0117188 84.5652 1.32868 87.7446 3.67288 90.0888C6.01709 92.433 9.19651 93.75 12.5117 93.75H87.5117C90.8269 93.75 94.0064 92.433 96.3506 90.0888C98.6948 87.7446 100.012 84.5652 100.012 81.25V18.75C100.012 15.4348 98.6948 12.2554 96.3506 9.91117C94.0064 7.56696 90.8269 6.25 87.5117 6.25H12.5117ZM87.5117 12.5C89.1693 12.5 90.759 13.1585 91.9311 14.3306C93.1032 15.5027 93.7617 17.0924 93.7617 18.75V59.375L70.1555 47.2062C69.5694 46.9126 68.9058 46.8108 68.2586 46.9151C67.6114 47.0194 67.0134 47.3246 66.5492 47.7875L43.3617 70.975L26.7367 59.9C26.1365 59.5004 25.4165 59.3206 24.6988 59.3913C23.9812 59.4619 23.3101 59.7785 22.7992 60.2875L6.26172 75V18.75C6.26172 17.0924 6.9202 15.5027 8.0923 14.3306C9.2644 13.1585 10.8541 12.5 12.5117 12.5H87.5117Z" fill="#37833A"/>
</g>
<defs>
<clipPath id="clip0_186_1273">
<rect width="100" height="100" fill="white"/>
</clipPath>
</defs>
</svg>
