<svg width="100" height="100" viewBox="0 0 100 100" fill="none" xmlns="http://www.w3.org/2000/svg">
<path d="M62.5002 83.3334H75.0002C77.2103 83.3334 79.3299 82.4554 80.8927 80.8926C82.4555 79.3298 83.3335 77.2102 83.3335 75V62.5C83.3335 61.395 83.7725 60.3352 84.5539 59.5538C85.3353 58.7724 86.3951 58.3334 87.5002 58.3334C88.6052 58.3334 89.665 58.7724 90.4464 59.5538C91.2278 60.3352 91.6668 61.395 91.6668 62.5V75C91.6668 79.4203 89.9109 83.6595 86.7853 86.7851C83.6597 89.9108 79.4204 91.6667 75.0002 91.6667H25.0002C20.5799 91.6667 16.3407 89.9108 13.215 86.7851C10.0894 83.6595 8.3335 79.4203 8.3335 75V62.5C8.3335 61.395 8.77248 60.3352 9.55388 59.5538C10.3353 58.7724 11.3951 58.3334 12.5002 58.3334C13.6052 58.3334 14.665 58.7724 15.4464 59.5538C16.2278 60.3352 16.6668 61.395 16.6668 62.5V75C16.6668 77.2102 17.5448 79.3298 19.1076 80.8926C20.6704 82.4554 22.79 83.3334 25.0002 83.3334H37.5002C38.6052 83.3334 39.665 83.7724 40.4464 84.5538C41.2278 85.3352 41.6668 86.395 41.6668 87.5C41.6668 88.6051 41.2278 89.6649 40.4464 90.4463C39.665 91.2277 38.6052 91.6667 37.5002 91.6667H62.5002C61.3951 91.6667 60.3353 91.2277 59.5539 90.4463C58.7725 89.6649 58.3335 88.6051 58.3335 87.5C58.3335 86.395 58.7725 85.3352 59.5539 84.5538C60.3353 83.7724 61.3951 83.3334 62.5002 83.3334V83.3334ZM16.6668 37.5C16.6668 38.6051 16.2278 39.6649 15.4464 40.4463C14.665 41.2277 13.6052 41.6667 12.5002 41.6667C11.3951 41.6667 10.3353 41.2277 9.55388 40.4463C8.77248 39.6649 8.3335 38.6051 8.3335 37.5V25C8.3335 20.5798 10.0894 16.3405 13.215 13.2149C16.3407 10.0893 20.5799 8.33337 25.0002 8.33337L37.5002 8.33337C38.6052 8.33337 39.665 8.77236 40.4464 9.55376C41.2278 10.3352 41.6668 11.395 41.6668 12.5C41.6668 13.6051 41.2278 14.6649 40.4464 15.4463C39.665 16.2277 38.6052 16.6667 37.5002 16.6667H25.0002C22.79 16.6667 20.6704 17.5447 19.1076 19.1075C17.5448 20.6703 16.6668 22.7899 16.6668 25V37.5ZM83.3335 37.5V25C83.3335 22.7899 82.4555 20.6703 80.8927 19.1075C79.3299 17.5447 77.2103 16.6667 75.0002 16.6667H62.5002C61.3951 16.6667 60.3353 16.2277 59.5539 15.4463C58.7725 14.6649 58.3335 13.6051 58.3335 12.5C58.3335 11.395 58.7725 10.3352 59.5539 9.55376C60.3353 8.77236 61.3951 8.33337 62.5002 8.33337H75.0002C79.4204 8.33337 83.6597 10.0893 86.7853 13.2149C89.9109 16.3405 91.6668 20.5798 91.6668 25V37.5C91.6668 38.6051 91.2278 39.6649 90.4464 40.4463C89.665 41.2277 88.6052 41.6667 87.5002 41.6667C86.3951 41.6667 85.3353 41.2277 84.5539 40.4463C83.7725 39.6649 83.3335 38.6051 83.3335 37.5Z" fill="#37833A"/>
</svg>
