<svg width="100" height="100" viewBox="0 0 100 100" fill="none" xmlns="http://www.w3.org/2000/svg">
<path d="M0 18.75C0 15.4348 1.31696 12.2554 3.66117 9.91117C6.00537 7.56696 9.18479 6.25 12.5 6.25H96.875C97.7038 6.25 98.4987 6.57924 99.0847 7.16529C99.6708 7.75134 100 8.5462 100 9.375C100 10.2038 99.6708 10.9987 99.0847 11.5847C98.4987 12.1708 97.7038 12.5 96.875 12.5H93.75V25C95.4076 25 96.9973 25.6585 98.1694 26.8306C99.3415 28.0027 100 29.5924 100 31.25V84.375C100 86.8614 99.0123 89.246 97.2541 91.0041C95.496 92.7623 93.1114 93.75 90.625 93.75H15.625C11.481 93.75 7.50671 92.1038 4.57646 89.1735C1.6462 86.2433 0 82.269 0 78.125V18.75ZM6.25 29.575V78.125C6.25 80.6114 7.23772 82.996 8.99587 84.7541C10.754 86.5123 13.1386 87.5 15.625 87.5H90.625C91.4538 87.5 92.2487 87.1708 92.8347 86.5847C93.4208 85.9987 93.75 85.2038 93.75 84.375V31.25H12.5C10.3058 31.2499 8.15021 30.6722 6.25 29.575ZM6.25 18.75C6.25 20.4076 6.90848 21.9973 8.08058 23.1694C9.25268 24.3415 10.8424 25 12.5 25H87.5V12.5H12.5C10.8424 12.5 9.25268 13.1585 8.08058 14.3306C6.90848 15.5027 6.25 17.0924 6.25 18.75Z" fill="#FDFDFD"/>
</svg>
